<?xml version="1.0" encoding="UTF-8" standalone="no"?><!DOCTYPE svg PUBLIC "-//W3C//DTD SVG 1.1//EN" "http://www.w3.org/Graphics/SVG/1.1/DTD/svg11.dtd"><svg width="100%" height="100%" viewBox="0 0 2819 2822" version="1.1" xmlns="http://www.w3.org/2000/svg" xmlns:xlink="http://www.w3.org/1999/xlink" xml:space="preserve" xmlns:serif="http://www.serif.com/" style="fill-rule:evenodd;clip-rule:evenodd;stroke-linecap:round;stroke-linejoin:round;stroke-miterlimit:1.5;"><g><path d="M1410.72,682.452c-115.224,0.709 -209.348,-92.263 -210.057,-207.487c-0.709,-115.225 92.263,-209.348 207.487,-210.057c115.224,-0.71 209.348,92.262 210.057,207.487c0.709,115.224 -92.263,209.347 -207.487,210.057Z" style="fill:#00ff48;fill-opacity:0.75;"/><path d="M1410.72,2556.53c-115.224,0.71 -209.348,-92.262 -210.057,-207.487c-0.709,-115.224 92.263,-209.348 207.487,-210.057c115.224,-0.709 209.348,92.263 210.057,207.487c0.709,115.225 -92.263,209.348 -207.487,210.057Z" style="fill:#00ff48;fill-opacity:0.75;"/><path d="M2137.68,1416.49c0,-115.227 93.55,-208.776 208.776,-208.776c115.227,-0 208.776,93.549 208.776,208.776c0,115.227 -93.549,208.776 -208.776,208.776c-115.226,-0 -208.776,-93.549 -208.776,-208.776Z" style="fill:#00ff48;fill-opacity:0.75;"/><path d="M263.637,1404.95c-0,-115.227 93.549,-208.776 208.776,-208.776c115.227,-0 208.776,93.549 208.776,208.776c-0,115.227 -93.549,208.776 -208.776,208.776c-115.227,-0 -208.776,-93.549 -208.776,-208.776Z" style="fill:#00ff48;fill-opacity:0.75;"/><path d="M895.38,894.847c-80.975,81.978 -213.271,82.792 -295.248,1.817c-81.978,-80.974 -82.792,-213.27 -1.818,-295.248c80.975,-81.977 213.271,-82.792 295.249,-1.817c81.977,80.974 82.791,213.271 1.817,295.248Z" style="fill:#00ff48;fill-opacity:0.75;"/><path d="M2220.55,2220.02c-80.975,81.977 -213.271,82.792 -295.249,1.817c-81.977,-80.974 -82.791,-213.271 -1.817,-295.248c80.975,-81.978 213.271,-82.792 295.248,-1.817c81.978,80.974 82.792,213.27 1.818,295.248Z" style="fill:#00ff48;fill-opacity:0.75;"/><path d="M1928.46,899.849c-81.478,-81.477 -81.478,-213.776 -0,-295.254c81.477,-81.477 213.776,-81.477 295.253,0c81.478,81.478 81.478,213.777 0,295.254c-81.477,81.478 -213.776,81.478 -295.253,0Z" style="fill:#00ff48;fill-opacity:0.75;"/><path d="M595.155,2216.84c-81.478,-81.477 -81.478,-213.776 -0,-295.253c81.477,-81.478 213.776,-81.478 295.253,-0c81.478,81.477 81.478,213.776 0,295.253c-81.477,81.478 -213.776,81.478 -295.253,0Z" style="fill:#00ff48;fill-opacity:0.75;"/><path d="M740.605,1122.55c-44.755,106.18 -167.295,156.05 -273.475,111.295c-106.18,-44.755 -156.049,-167.295 -111.294,-273.475c44.754,-106.18 167.294,-156.049 273.474,-111.294c106.18,44.754 156.05,167.294 111.295,273.474Z" style="fill:#00ff48;fill-opacity:0.75;"/><path d="M2463.03,1861.07c-44.754,106.18 -167.294,156.049 -273.474,111.294c-106.18,-44.754 -156.05,-167.294 -111.295,-273.474c44.755,-106.18 167.295,-156.05 273.475,-111.295c106.18,44.755 156.049,167.295 111.294,273.475Z" style="fill:#00ff48;fill-opacity:0.75;"/><path d="M1701.71,743.676c-105.903,-45.408 -155.017,-168.252 -109.61,-274.155c45.408,-105.902 168.252,-155.017 274.155,-109.609c105.902,45.407 155.016,168.252 109.609,274.154c-45.408,105.903 -168.252,155.017 -274.154,109.61Z" style="fill:#00ff48;fill-opacity:0.75;"/><path d="M952.607,2461.52c-105.902,-45.407 -155.016,-168.252 -109.609,-274.154c45.408,-105.903 168.252,-155.017 274.154,-109.61c105.903,45.408 155.017,168.252 109.61,274.155c-45.408,105.902 -168.252,155.016 -274.155,109.609Z" style="fill:#00ff48;fill-opacity:0.75;"/><path d="M732.734,1679.88c43.434,106.727 -7.952,228.639 -114.679,272.073c-106.727,43.434 -228.639,-7.952 -272.073,-114.679c-43.434,-106.727 7.952,-228.638 114.679,-272.073c106.727,-43.434 228.638,7.952 272.073,114.679Z" style="fill:#00ff48;fill-opacity:0.75;"/><path d="M2472.88,984.157c43.434,106.727 -7.952,228.638 -114.679,272.072c-106.727,43.435 -228.638,-7.951 -272.073,-114.678c-43.434,-106.727 7.952,-228.639 114.679,-272.073c106.727,-43.434 228.639,7.952 272.073,114.679Z" style="fill:#00ff48;fill-opacity:0.75;"/><path d="M1144.44,732.374c-106.993,42.777 -228.586,-9.359 -271.362,-116.351c-42.777,-106.992 9.358,-228.585 116.351,-271.362c106.992,-42.776 228.585,9.359 271.362,116.351c42.776,106.992 -9.359,228.586 -116.351,271.362Z" style="fill:#00ff48;fill-opacity:0.75;"/><path d="M1829.44,2476.77c-106.992,42.776 -228.585,-9.359 -271.362,-116.351c-42.776,-106.993 9.359,-228.586 116.351,-271.362c106.993,-42.777 228.586,9.358 271.362,116.351c42.777,106.992 -9.358,228.585 -116.351,271.362Z" style="fill:#00ff48;fill-opacity:0.75;"/></g><g><path d="M1288.97,838.832c-90.33,19.775 -179.722,-37.506 -199.497,-127.837c-19.775,-90.33 37.506,-179.721 127.836,-199.497c90.33,-19.775 179.722,37.507 199.497,127.837c19.775,90.33 -37.506,179.722 -127.836,199.497Z" style="fill:#00ff48;fill-opacity:0.75;"/><path d="M1601.55,2309.94c-90.33,19.776 -179.722,-37.506 -199.497,-127.836c-19.775,-90.33 37.506,-179.722 127.836,-199.497c90.33,-19.775 179.722,37.506 199.497,127.836c19.776,90.331 -37.506,179.722 -127.836,199.497Z" style="fill:#00ff48;fill-opacity:0.75;"/><path d="M1982.05,1293.78c-19.219,-90.45 38.612,-179.487 129.062,-198.706c90.45,-19.219 179.488,38.612 198.706,129.062c19.219,90.45 -38.611,179.487 -129.061,198.706c-90.451,19.219 -179.488,-38.611 -198.707,-129.062Z" style="fill:#00ff48;fill-opacity:0.75;"/><path d="M509.049,1597.3c-19.219,-90.45 38.611,-179.488 129.062,-198.706c90.45,-19.219 179.487,38.611 198.706,129.062c19.219,90.45 -38.612,179.487 -129.062,198.706c-90.45,19.219 -179.488,-38.612 -198.706,-129.062Z" style="fill:#00ff48;fill-opacity:0.75;"/><path d="M919.871,1091.51c-49.89,77.856 -153.604,100.561 -231.46,50.671c-77.856,-49.89 -100.562,-153.603 -50.672,-231.46c49.89,-77.856 153.604,-100.561 231.46,-50.671c77.856,49.89 100.561,153.603 50.672,231.46Z" style="fill:#00ff48;fill-opacity:0.75;"/><path d="M2181.13,1910.71c-49.89,77.857 -153.604,100.562 -231.46,50.672c-77.856,-49.89 -100.561,-153.603 -50.672,-231.46c49.89,-77.856 153.604,-100.561 231.46,-50.671c77.856,49.89 100.562,153.603 50.672,231.459Z" style="fill:#00ff48;fill-opacity:0.75;"/><path d="M1731.65,923.129c-77.548,-50.368 -99.614,-154.219 -49.246,-231.767c50.368,-77.548 154.22,-99.614 231.767,-49.246c77.548,50.368 99.614,154.219 49.246,231.767c-50.368,77.548 -154.219,99.614 -231.767,49.246Z" style="fill:#00ff48;fill-opacity:0.75;"/><path d="M904.699,2179.32c-77.548,-50.368 -99.614,-154.219 -49.246,-231.767c50.368,-77.548 154.219,-99.614 231.767,-49.246c77.548,50.368 99.614,154.219 49.246,231.767c-50.368,77.548 -154.22,99.614 -231.767,49.246Z" style="fill:#00ff48;fill-opacity:0.75;"/><path d="M836.355,1296.07c-17.422,90.813 -105.295,150.398 -196.108,132.977c-90.814,-17.422 -150.399,-105.295 -132.977,-196.108c17.421,-90.814 105.294,-150.399 196.107,-132.977c90.814,17.421 150.399,105.294 132.978,196.108Z" style="fill:#00ff48;fill-opacity:0.75;"/><path d="M2311.6,1588.5c-17.421,90.814 -105.294,150.399 -196.107,132.977c-90.814,-17.421 -150.399,-105.294 -132.977,-196.108c17.421,-90.813 105.294,-150.398 196.107,-132.977c90.814,17.422 150.399,105.295 132.977,196.108Z" style="fill:#00ff48;fill-opacity:0.75;"/><path d="M1527.61,838.355c-90.705,-17.98 -149.748,-106.218 -131.768,-196.922c17.98,-90.705 106.219,-149.748 196.923,-131.768c90.705,17.98 149.748,106.218 131.768,196.923c-17.98,90.705 -106.219,149.748 -196.923,131.767Z" style="fill:#00ff48;fill-opacity:0.75;"/><path d="M1226.1,2311.77c-90.705,-17.98 -149.748,-106.219 -131.768,-196.923c17.981,-90.705 106.219,-149.748 196.923,-131.768c90.705,17.98 149.748,106.219 131.768,196.923c-17.98,90.705 -106.219,149.748 -196.923,131.768Z" style="fill:#00ff48;fill-opacity:0.75;"/><path d="M923.135,1734.88c51.896,76.533 31.893,180.802 -44.64,232.698c-76.534,51.896 -180.802,31.893 -232.698,-44.64c-51.896,-76.534 -31.894,-180.802 44.64,-232.698c76.533,-51.896 180.802,-31.894 232.698,44.64Z" style="fill:#00ff48;fill-opacity:0.75;"/><path d="M2173.07,898.502c51.897,76.534 31.894,180.802 -44.64,232.698c-76.533,51.896 -180.802,31.894 -232.698,-44.64c-51.896,-76.534 -31.893,-180.802 44.64,-232.698c76.534,-51.896 180.802,-31.893 232.698,44.64Z" style="fill:#00ff48;fill-opacity:0.75;"/><path d="M1088.28,922.433c-76.852,51.424 -180.995,30.78 -232.419,-46.071c-51.424,-76.852 -30.78,-180.995 46.072,-232.419c76.851,-51.424 180.995,-30.78 232.419,46.071c51.424,76.852 30.78,180.995 -46.072,232.419Z" style="fill:#00ff48;fill-opacity:0.75;"/><path d="M1916.94,2177.49c-76.851,51.424 -180.995,30.78 -232.419,-46.072c-51.424,-76.851 -30.78,-180.995 46.072,-232.419c76.852,-51.423 180.995,-30.779 232.419,46.072c51.424,76.852 30.78,180.995 -46.072,232.419Z" style="fill:#00ff48;fill-opacity:0.75;"/></g><g><path d="M1397.94,983.88c-67.518,2.354 -124.245,-50.551 -126.598,-118.069c-2.354,-67.518 50.552,-124.244 118.069,-126.598c67.518,-2.353 124.245,50.552 126.598,118.07c2.354,67.517 -50.552,124.244 -118.069,126.597Z" style="fill:#00ff48;fill-opacity:0.75;"/><path d="M1429.46,2082.22c-67.518,2.353 -124.245,-50.552 -126.598,-118.07c-2.353,-67.518 50.552,-124.244 118.069,-126.598c67.518,-2.353 124.245,50.552 126.598,118.07c2.354,67.518 -50.552,124.244 -118.069,126.598Z" style="fill:#00ff48;fill-opacity:0.75;"/><path d="M1836.33,1401.85c-1.938,-67.531 51.315,-123.93 118.846,-125.868c67.531,-1.938 123.931,51.315 125.869,118.846c1.938,67.531 -51.316,123.931 -118.847,125.869c-67.531,1.938 -123.931,-51.316 -125.868,-118.847Z" style="fill:#00ff48;fill-opacity:0.75;"/><path d="M737.818,1426.61c-1.938,-67.531 51.316,-123.931 118.847,-125.869c67.531,-1.938 123.931,51.316 125.868,118.846c1.938,67.531 -51.315,123.931 -118.846,125.869c-67.531,1.938 -123.931,-51.315 -125.869,-118.846Z" style="fill:#00ff48;fill-opacity:0.75;"/><path d="M1099.49,1117.03c-46.078,49.406 -123.6,52.108 -173.006,6.03c-49.406,-46.078 -52.108,-123.599 -6.03,-173.006c46.078,-49.406 123.599,-52.108 173.006,-6.03c49.406,46.078 52.108,123.6 6.03,173.006Z" style="fill:#00ff48;fill-opacity:0.75;"/><path d="M1898.42,1871.38c-46.078,49.407 -123.599,52.109 -173.005,6.031c-49.407,-46.078 -52.109,-123.6 -6.031,-173.006c46.078,-49.406 123.6,-52.109 173.006,-6.03c49.406,46.078 52.108,123.599 6.03,173.005Z" style="fill:#00ff48;fill-opacity:0.75;"/><path d="M1705.03,1102.58c-49.122,-46.381 -51.347,-123.918 -4.966,-173.04c46.382,-49.122 123.918,-51.347 173.04,-4.965c49.122,46.381 51.347,123.918 4.965,173.039c-46.381,49.122 -123.917,51.347 -173.039,4.966Z" style="fill:#00ff48;fill-opacity:0.75;"/><path d="M945.765,1896.86c-49.122,-46.381 -51.347,-123.918 -4.965,-173.04c46.381,-49.121 123.917,-51.346 173.039,-4.965c49.122,46.381 51.347,123.918 4.966,173.04c-46.382,49.122 -123.918,51.346 -173.04,4.965Z" style="fill:#00ff48;fill-opacity:0.75;"/><path d="M1012.61,1253.08c-24.444,62.981 -95.422,94.269 -158.404,69.825c-62.981,-24.443 -94.269,-95.422 -69.825,-158.403c24.443,-62.982 95.422,-94.27 158.403,-69.826c62.982,24.444 94.27,95.422 69.826,158.404Z" style="fill:#00ff48;fill-opacity:0.75;"/><path d="M2034.49,1656.93c-24.443,62.982 -95.422,94.27 -158.403,69.826c-62.982,-24.444 -94.27,-95.422 -69.826,-158.404c24.444,-62.981 95.422,-94.269 158.404,-69.826c62.981,24.444 94.269,95.423 69.825,158.404Z" style="fill:#00ff48;fill-opacity:0.75;"/><path d="M1569.51,1014.87c-62.83,-24.831 -93.68,-96 -68.849,-158.83c24.831,-62.83 96,-93.681 158.83,-68.85c62.83,24.831 93.681,96.001 68.85,158.831c-24.831,62.83 -96.001,93.68 -158.831,68.849Z" style="fill:#00ff48;fill-opacity:0.75;"/><path d="M1159.37,2034.25c-62.83,-24.831 -93.681,-96.001 -68.85,-158.831c24.831,-62.83 96.001,-93.68 158.831,-68.849c62.83,24.831 93.68,96 68.849,158.83c-24.831,62.83 -96,93.681 -158.83,68.85Z" style="fill:#00ff48;fill-opacity:0.75;"/><path d="M1017.37,1579.85c27.25,61.82 -0.815,134.133 -62.634,161.383c-61.819,27.25 -134.133,-0.815 -161.383,-62.634c-27.25,-61.819 0.815,-134.132 62.634,-161.383c61.819,-27.25 134.132,0.815 161.383,62.634Z" style="fill:#00ff48;fill-opacity:0.75;"/><path d="M2025.52,1142.84c27.25,61.819 -0.815,134.132 -62.634,161.383c-61.819,27.25 -134.132,-0.815 -161.383,-62.634c-27.25,-61.82 0.815,-134.133 62.634,-161.383c61.819,-27.25 134.133,0.815 161.383,62.634Z" style="fill:#00ff48;fill-opacity:0.75;"/><path d="M1242.72,1017.62c-61.985,26.869 -134.124,-1.641 -160.994,-63.627c-26.869,-61.985 1.641,-134.124 63.627,-160.994c61.985,-26.869 134.124,1.641 160.994,63.627c26.869,61.985 -1.641,134.124 -63.627,160.994Z" style="fill:#00ff48;fill-opacity:0.75;"/><path d="M1673.52,2028.44c-61.985,26.869 -134.124,-1.641 -160.994,-63.627c-26.869,-61.985 1.641,-134.124 63.627,-160.994c61.985,-26.869 134.124,1.641 160.994,63.626c26.869,61.986 -1.641,134.125 -63.627,160.995Z" style="fill:#00ff48;fill-opacity:0.75;"/></g><g><path d="M908.286,656.863c-118.643,80.234 -280.106,49.05 -360.34,-69.593c-80.233,-118.644 -49.049,-280.107 69.594,-360.34c118.643,-80.234 280.106,-49.05 360.34,69.593c80.234,118.644 49.05,280.106 -69.594,360.34Z" style="fill:#00ff48;fill-opacity:0.5;"/><path d="M2201.33,2594.51c-118.643,80.234 -280.106,49.05 -360.34,-69.593c-80.234,-118.644 -49.05,-280.107 69.594,-360.34c118.643,-80.234 280.106,-49.05 360.34,69.593c80.233,118.644 49.049,280.107 -69.594,360.34Z" style="fill:#00ff48;fill-opacity:0.5;"/><path d="M2166.36,914.22c-79.502,-119.135 -47.325,-280.403 71.81,-359.904c119.135,-79.502 280.403,-47.325 359.904,71.81c79.502,119.135 47.325,280.403 -71.81,359.904c-119.135,79.502 -280.402,47.325 -359.904,-71.81Z" style="fill:#00ff48;fill-opacity:0.5;"/><path d="M220.794,2195.31c-79.502,-119.135 -47.325,-280.403 71.81,-359.905c119.135,-79.501 280.403,-47.324 359.904,71.811c79.502,119.135 47.325,280.402 -71.81,359.904c-119.135,79.502 -280.403,47.325 -359.904,-71.81Z" style="fill:#00ff48;fill-opacity:0.5;"/><path d="M522.013,1232.03c-27.159,140.627 -163.381,232.749 -304.008,205.589c-140.628,-27.16 -232.749,-163.382 -205.589,-304.009c27.159,-140.627 163.381,-232.749 304.009,-205.589c140.627,27.16 232.748,163.382 205.588,304.009Z" style="fill:#00ff48;fill-opacity:0.5;"/><path d="M2806.45,1687.83c-27.159,140.627 -163.381,232.748 -304.009,205.589c-140.627,-27.16 -232.748,-163.382 -205.588,-304.009c27.159,-140.627 163.381,-232.749 304.009,-205.589c140.627,27.16 232.748,163.382 205.588,304.009Z" style="fill:#00ff48;fill-opacity:0.5;"/><path d="M1593.58,524.414c-140.457,-28.024 -231.738,-164.811 -203.714,-305.268c28.025,-140.458 164.811,-231.739 305.269,-203.714c140.457,28.025 231.738,164.811 203.714,305.269c-28.025,140.457 -164.811,231.738 -305.269,203.713Z" style="fill:#00ff48;fill-opacity:0.5;"/><path d="M1123.73,2806c-140.457,-28.025 -231.738,-164.811 -203.714,-305.269c28.025,-140.457 164.811,-231.738 305.269,-203.714c140.457,28.025 231.738,164.811 203.714,305.269c-28.025,140.457 -164.811,231.738 -305.269,203.714Z" style="fill:#00ff48;fill-opacity:0.5;"/><path d="M519.093,1574.24c26.988,140.661 -65.301,276.769 -205.961,303.757c-140.661,26.987 -276.769,-65.301 -303.757,-205.962c-26.987,-140.66 65.301,-276.769 205.962,-303.756c140.66,-26.987 276.769,65.301 303.756,205.961Z" style="fill:#00ff48;fill-opacity:0.5;"/><path d="M2809.49,1149.4c26.987,140.66 -65.301,276.769 -205.962,303.756c-140.66,26.987 -276.769,-65.301 -303.756,-205.961c-26.988,-140.661 65.301,-276.77 205.961,-303.757c140.661,-26.987 276.769,65.301 303.757,205.962Z" style="fill:#00ff48;fill-opacity:0.5;"/><path d="M1251.39,519.388c-140.824,26.121 -276.362,-67.003 -302.483,-207.827c-26.121,-140.824 67.004,-276.362 207.827,-302.483c140.824,-26.121 276.363,67.003 302.484,207.827c26.121,140.824 -67.004,276.362 -207.828,302.483Z" style="fill:#00ff48;fill-opacity:0.5;"/><path d="M1662.13,2812.36c-140.824,26.121 -276.363,-67.003 -302.483,-207.827c-26.121,-140.824 67.003,-276.362 207.827,-302.483c140.824,-26.121 276.362,67.003 302.483,207.827c26.121,140.824 -67.004,276.362 -207.827,302.483Z" style="fill:#00ff48;fill-opacity:0.5;"/><path d="M895.495,2155.91c118.545,80.379 149.531,241.88 69.152,360.425c-80.379,118.545 -241.88,149.531 -360.425,69.152c-118.545,-80.379 -149.531,-241.88 -69.152,-360.425c80.379,-118.545 241.88,-149.531 360.425,-69.152Z" style="fill:#00ff48;fill-opacity:0.5;"/><path d="M2214.64,235.948c118.545,80.379 149.531,241.88 69.152,360.425c-80.379,118.545 -241.88,149.531 -360.425,69.152c-118.545,-80.379 -149.531,-241.88 -69.152,-360.425c80.379,-118.545 241.881,-149.531 360.425,-69.152Z" style="fill:#00ff48;fill-opacity:0.5;"/><path d="M667.418,892.203c-81.107,118.048 -242.796,148.039 -360.844,66.931c-118.048,-81.107 -148.039,-242.795 -66.932,-360.843c81.107,-118.048 242.796,-148.039 360.844,-66.932c118.048,81.107 148.039,242.796 66.932,360.844Z" style="fill:#00ff48;fill-opacity:0.5;"/><path d="M2579.22,2223.14c-81.107,118.048 -242.796,148.039 -360.844,66.932c-118.048,-81.107 -148.039,-242.796 -66.932,-360.844c81.107,-118.048 242.796,-148.039 360.844,-66.932c118.048,81.108 148.039,242.796 66.932,360.844Z" style="fill:#00ff48;fill-opacity:0.5;"/></g><path d="M1632.88,1858.85c-247.075,123.324 -547.793,22.854 -671.117,-224.221c-123.325,-247.076 -22.855,-547.793 224.221,-671.118c247.075,-123.324 547.793,-22.854 671.117,224.221c123.325,247.076 22.855,547.794 -224.221,671.118Z" style="fill:#18ba00;"/><path d="M1545.75,1684.29c-150.732,75.235 -334.189,13.942 -409.425,-136.79c-75.236,-150.732 -13.943,-334.189 136.789,-409.424c150.732,-75.236 334.189,-13.943 409.425,136.789c75.236,150.732 13.943,334.189 -136.789,409.425Z" style="stroke:#fff;stroke-width:103.13px;"/></svg>